<?xml version="1.0" standalone="no"?>
<!DOCTYPE svg PUBLIC "-//W3C//DTD SVG 20010904//EN"
 "http://www.w3.org/TR/2001/REC-SVG-20010904/DTD/svg10.dtd">
<svg version="1.0" xmlns="http://www.w3.org/2000/svg"
 width="210.000000pt" height="240.000000pt" viewBox="0 0 210.000000 240.000000"
 preserveAspectRatio="xMidYMid meet">
<metadata>
Created by potrace 1.16, written by Peter Selinger 2001-2019
</metadata>
<g transform="translate(0.000000,240.000000) scale(0.100000,-0.100000)"
fill="#000000" stroke="none">
<path d="M122 2365 c5 -8 78 -337 78 -350 0 -2 -35 -22 -78 -45 -42 -23 -81
-45 -85 -49 -18 -18 47 -326 112 -526 147 -459 409 -831 759 -1082 121 -86
127 -89 157 -73 69 37 253 187 355 290 239 241 408 535 523 910 39 126 107
422 107 464 0 8 -38 36 -85 61 -47 26 -85 51 -85 55 0 5 13 69 29 142 17 73
33 151 37 173 l7 39 -29 -19 c-101 -66 -183 -112 -186 -103 -2 5 -43 -14 -92
-43 l-88 -53 -127 41 c-134 44 -240 74 -334 94 -45 10 -69 10 -115 0 -93 -20
-199 -50 -333 -94 l-126 -41 -81 48 c-45 26 -87 46 -94 44 -11 -4 -41 12 -197
106 -19 11 -32 16 -29 11z m96 -93 c56 -39 162 -93 162 -83 0 6 29 -7 65 -29
36 -22 70 -40 75 -40 5 0 56 16 112 35 142 49 360 105 411 105 50 0 229 -47
386 -101 62 -21 119 -39 125 -39 7 0 39 16 71 35 32 20 65 33 72 31 7 -3 53
19 103 49 49 30 92 55 95 55 7 0 1 -34 -30 -164 -14 -58 -25 -112 -25 -120 0
-8 37 -34 81 -58 45 -24 84 -49 86 -55 7 -18 -42 -246 -83 -390 -115 -400
-288 -708 -544 -963 -103 -104 -314 -270 -342 -270 -15 0 -175 119 -261 194
-222 195 -418 479 -536 779 -73 183 -157 497 -163 606 l-3 55 83 44 c78 41 84
46 78 71 -14 66 -56 266 -56 268 0 7 14 1 38 -15z"/>
<path d="M251 2183 c0 -5 10 -55 23 -113 22 -103 23 -105 55 -114 22 -6 35 -6
39 1 5 7 41 -3 106 -28 99 -38 154 -69 85 -48 -27 8 -239 21 -239 14 0 -1 13
-33 28 -71 24 -57 33 -70 54 -72 14 -2 32 3 40 11 9 9 44 16 96 19 45 3 80 3
79 1 -2 -2 -28 -11 -58 -22 -30 -10 -52 -21 -49 -25 3 -4 -15 -16 -40 -27 -24
-11 -46 -22 -48 -24 -3 -3 68 -115 74 -115 19 0 54 23 54 35 0 10 22 26 55 41
73 32 77 30 27 -8 -23 -18 -42 -39 -42 -47 0 -9 -12 -26 -28 -38 l-27 -23 45
-39 44 -39 35 27 35 26 -23 -33 c-13 -18 -22 -34 -20 -36 2 -1 22 -12 43 -25
l39 -22 43 42 c24 24 45 41 47 38 34 -42 77 -104 77 -111 0 -5 -23 -23 -50
-40 -28 -17 -50 -34 -50 -38 0 -3 15 -24 33 -46 18 -21 40 -49 49 -62 l16 -23
41 43 42 43 -28 -58 c-27 -56 -27 -57 -8 -71 64 -46 62 -38 26 -95 l-33 -52
47 -119 c26 -66 51 -120 54 -120 3 0 28 54 54 120 l49 121 -33 51 c-32 50 -33
52 -14 64 65 43 63 36 32 101 l-28 58 40 -42 39 -43 52 66 c50 62 52 66 34 79
-11 8 -22 15 -25 15 -3 0 -19 10 -37 23 l-31 24 40 54 c23 30 43 56 46 59 2 3
21 -15 42 -38 l37 -44 47 23 c26 13 47 26 47 29 0 4 -9 15 -20 25 -30 28 -24
39 9 16 16 -12 33 -21 38 -21 4 0 26 17 47 37 l39 36 -29 24 c-16 13 -28 28
-27 33 2 5 -16 25 -40 45 l-42 36 54 -21 c69 -27 71 -28 71 -46 0 -8 12 -19
26 -25 29 -10 34 -6 82 72 l22 37 -45 17 c-24 10 -43 22 -42 27 1 6 -22 19
-52 29 -30 10 -56 20 -58 22 -1 2 34 2 79 -1 50 -3 88 -10 96 -18 22 -22 61
-17 71 9 5 12 18 45 29 73 l20 50 -91 -1 c-51 -1 -110 -5 -132 -10 -58 -11
-42 -1 70 44 81 33 101 37 105 26 4 -13 10 -12 40 3 34 16 36 20 57 122 12 58
20 106 18 108 -4 4 -96 -47 -117 -65 -9 -8 -31 -16 -50 -18 -18 -1 -73 -27
-123 -57 -49 -30 -93 -51 -96 -46 -3 5 -39 -11 -78 -35 -54 -33 -69 -47 -58
-54 7 -4 22 -20 31 -35 18 -27 18 -28 -14 -68 -38 -48 -67 -52 -133 -15 -40
23 -45 30 -52 72 -4 25 -9 52 -12 59 -3 9 2 14 14 14 11 0 20 6 20 14 0 19
-126 61 -141 46 -5 -5 -27 -10 -47 -10 -29 0 -43 -6 -59 -27 l-22 -28 35 -3
c20 -2 40 -9 47 -16 16 -20 -23 -80 -76 -117 -59 -40 -97 -37 -136 12 -26 32
-28 40 -18 60 7 13 21 31 31 39 17 14 14 18 -54 58 -39 23 -73 38 -75 33 -2
-5 -48 17 -104 49 -55 32 -106 56 -113 54 -7 -3 -46 15 -87 40 -77 47 -89 52
-87 39z"/>
<path d="M970 2174 c-90 -24 -242 -73 -283 -91 -33 -15 -37 -19 -23 -29 13 -9
35 -3 114 28 53 22 135 52 181 67 l83 28 117 -42 c64 -23 143 -53 177 -67 49
-20 64 -23 77 -13 15 11 14 13 -9 24 -60 27 -347 113 -370 110 -5 0 -34 -7
-64 -15z"/>
<path d="M223 1867 c-30 -14 -43 -27 -43 -42 0 -36 59 -266 96 -375 33 -95
124 -296 172 -376 106 -181 316 -410 487 -531 115 -82 102 -83 222 8 284 216
477 473 617 823 59 148 135 443 120 467 -6 10 -85 52 -88 47 -20 -32 -23 -57
-9 -71 15 -14 15 -23 -1 -99 -54 -259 -171 -521 -325 -728 -112 -151 -397
-401 -439 -385 -66 25 -274 202 -362 308 -185 222 -296 445 -374 749 -33 129
-34 134 -16 152 17 18 17 22 4 48 -8 15 -16 28 -17 27 -1 0 -21 -10 -44 -22z"/>
<path d="M581 1312 c8 -11 42 -60 77 -108 l63 -89 -31 -3 -31 -3 63 -72 c35
-39 72 -80 83 -91 11 -12 38 -41 59 -66 47 -54 42 -44 -41 80 l-64 95 35 3 34
3 -37 57 c-21 31 -51 77 -67 102 -16 25 -31 48 -34 52 -3 4 -32 19 -64 33 -53
24 -58 24 -45 7z"/>
<path d="M1448 1302 c-53 -25 -63 -35 -127 -134 l-70 -107 35 -3 35 -3 -66
-100 c-100 -150 -103 -152 59 33 106 121 107 122 76 122 l-31 0 76 110 c42 61
75 110 73 110 -2 0 -29 -12 -60 -28z"/>
<path d="M745 584 c101 -100 264 -224 294 -224 18 0 118 66 196 131 63 51 239
226 190 188 -11 -9 -56 -45 -100 -80 -96 -77 -184 -139 -242 -168 l-43 -21
-52 26 c-52 27 -211 137 -251 175 -87 82 -80 60 8 -27z"/>
</g>
</svg>
